<svg width="34" height="58" viewBox="0 0 34 58" fill="none" xmlns="http://www.w3.org/2000/svg">
<path d="M2.50475 46.4946C1.70361 44.9198 0.905262 43.0106 1.01535 40.7736C1.01607 40.7634 1.00644 40.6802 0.961438 40.4403C0.554864 38.4503 0.51523 36.6611 0.839462 34.9694C0.991618 34.1923 1.13865 33.4149 1.28604 32.6323C1.65344 30.6914 2.03098 28.679 2.45761 26.701C2.71122 25.5037 3.1165 24.42 3.50902 23.3714L3.57279 23.1958C4.97337 19.4376 6.14152 16.353 7.24815 13.4855C7.9017 11.7962 8.60173 10.105 9.27696 8.47386L9.67947 7.50326C9.95874 6.82261 10.1406 6.06309 10.2129 5.24956C10.377 3.41793 11.418 1.93075 13.1467 1.06316C13.5361 0.869006 13.9395 0.696475 14.3407 0.554633C15.6236 0.0986193 16.9436 -0.0768202 18.2592 0.0306216C18.8429 0.0765861 19.6899 0.259399 20.4003 0.849651C21.0278 1.37233 21.7515 1.99431 22.4232 2.69512C24.5202 4.88051 25.9661 7.39623 26.8665 9.09637L27.3039 9.90952C28.3512 11.867 29.4347 13.894 30.1981 16.1561L30.2272 16.2559C30.368 16.7445 30.5192 17.2339 30.6706 17.7182C31.0097 18.8333 31.3619 19.9803 31.655 21.1643C32.4038 24.2233 32.8285 27.3523 32.925 30.4635L32.9382 30.9382C33.0093 33.2341 33.0849 35.6128 32.8599 38.022C32.7734 38.9632 32.6325 39.8749 32.4936 40.7558C32.4291 41.1632 32.3701 41.5658 32.3107 41.9735C32.2596 42.3355 32.2089 42.6923 32.1531 43.0488C32.0256 43.9151 31.9013 44.7353 31.8242 45.5434C31.6546 47.3798 31.1905 49.2316 30.4357 51.0425C30.3865 51.1575 30.3322 51.272 30.2731 51.3812C29.3298 54.1211 27.0169 55.3906 25.6247 56.1582C25.1483 56.4184 24.6799 56.6379 24.2324 56.8537L23.8009 57.0604C23.6945 57.1095 23.583 57.1583 23.4667 57.2016C23.1975 57.2961 22.9202 57.3592 22.6458 57.3812C19.5016 57.6555 16.6468 57.4713 13.9183 56.8068C9.63047 55.7656 6.42779 53.4154 4.39784 49.8292C4.18248 49.4486 3.95651 49.0725 3.73567 48.6967C3.33175 47.994 2.89853 47.2686 2.50475 46.4946Z" fill="#FFE489"/>
<path d="M24.5998 10.2972C23.4854 8.19599 22.2251 6.19267 20.5694 4.4706C20.0028 3.88526 19.3869 3.3427 18.7589 2.82514C18.5791 2.67355 18.2902 2.60709 18.0443 2.5899C16.7236 2.4821 15.4678 2.77012 14.2941 3.35733C13.4459 3.78196 12.8599 4.4309 12.766 5.47975C12.6735 6.5081 12.4485 7.51685 12.0514 8.48272C11.2391 10.4544 10.4115 12.4249 9.64383 14.4202C8.39942 17.6385 7.18537 20.864 5.98123 24.0953C5.59491 25.1289 5.19763 26.172 4.96834 27.2422C4.38623 29.9713 3.89562 32.7171 3.36402 35.46C3.0739 36.9585 3.17564 38.4484 3.47864 39.9318C3.54388 40.2504 3.59781 40.5836 3.58037 40.9067C3.49861 42.5176 4.08839 43.949 4.78972 45.3314C5.35085 46.4364 6.02935 47.4825 6.63839 48.565C8.39759 51.6793 11.1033 53.4799 14.5306 54.3117C17.1375 54.947 19.7657 55.0587 22.4284 54.8227C22.5166 54.8134 22.611 54.7892 22.691 54.7484C23.2611 54.4742 23.8403 54.2162 24.3917 53.915C25.8855 53.0927 27.3219 52.2097 27.8828 50.447C27.9228 50.316 28.0086 50.1933 28.0637 50.0684C28.6955 48.5423 29.1143 46.9705 29.2659 45.3182C29.3782 44.0802 29.5927 42.8544 29.7661 41.6258C29.9431 40.3459 30.1813 39.0755 30.3019 37.7917C30.5219 35.3822 30.4283 32.9662 30.3555 30.5465C30.2647 27.5747 29.8615 24.6532 29.1616 21.7778C28.7651 20.1592 28.2373 18.5778 27.7672 16.9798C26.9745 14.623 25.755 12.4785 24.5998 10.2972ZM16.8905 6.2057C16.9346 8.29902 16.8199 10.3812 16.4999 12.4542C15.8374 16.7016 15.1851 20.9497 14.8391 25.2347C14.5293 29.0022 14.3172 32.7715 14.3716 36.5593C14.4133 39.4968 14.5483 42.4254 14.8124 45.3475C14.9472 46.8809 15.3461 48.3915 15.6415 49.9103C15.7134 50.2809 15.7796 50.2907 16.2523 50.231C15.9458 48.6497 15.5875 47.0749 15.3538 45.4832C15.156 44.1153 14.9703 42.7226 15.0095 41.3507C15.0751 39.1621 14.98 36.988 14.942 34.8076C14.8987 32.5547 14.9894 30.3009 15.121 28.05C15.2509 25.8247 15.4375 23.5983 15.7156 21.3885C16.177 17.7345 16.7512 14.0883 17.2485 10.4369C17.5261 8.38152 17.5058 6.31572 17.3567 4.2511C17.3436 4.07 17.3408 3.88957 17.3899 3.70252C17.689 5.02082 17.9365 6.34063 17.9751 7.70249C18.0122 9.01277 18.0592 10.3289 18.3344 11.6198C18.6545 10.7979 18.4129 9.98295 18.3879 9.16261C18.3661 8.29616 18.3344 7.42386 18.2815 6.56038C18.2312 5.73313 18.1448 4.90848 18.0685 4.08456C18.1267 4.06289 18.1797 4.0409 18.2378 4.01923C18.7977 4.774 19.3576 5.52881 19.9783 6.37021C20.1376 5.71206 19.6168 5.35635 19.5697 4.70437C20.5592 6.01432 21.7977 6.92989 22.6817 8.35087C22.0624 8.22519 21.9392 7.55753 21.3314 7.56137C21.3774 7.71388 21.3736 7.84228 21.4362 7.90329C22.607 9.05087 23.2339 10.5414 23.9162 11.974C25.1734 14.6104 25.9179 17.4375 26.7421 20.2289C26.8667 20.6546 26.8813 21.1086 26.9588 21.5465C26.9843 21.6976 27.0409 21.8457 27.1229 22.1449C27.2327 21.9003 27.3386 21.7842 27.3249 21.6855C27.2487 21.0829 27.2046 20.4619 27.039 19.884C26.2972 17.3146 25.5926 14.7272 24.4977 12.2721C24.1324 11.4589 23.7141 10.6677 23.3221 9.86801C23.223 9.66544 23.1298 9.45295 23.1341 9.17009C23.2319 9.24386 23.3517 9.29864 23.4169 9.39588C24.4448 10.8938 25.2431 12.5096 25.9661 14.1716C26.9325 16.4015 27.52 18.749 28.2285 21.0587C28.9205 23.3106 29.4143 25.6001 29.7091 27.9374C29.9509 29.8541 29.976 31.7763 29.8724 33.6997C29.7802 35.387 29.7234 37.0819 29.5086 38.7556C29.267 40.6642 28.8776 42.5521 28.5496 44.4443C28.5231 44.6021 28.4703 44.7684 28.3886 44.9068C28.0382 45.5001 28.0268 46.1789 28.0284 46.8174C28.0318 47.5796 27.799 48.2583 27.486 48.9057C26.8852 50.1353 26.1115 51.2602 25.162 52.2492C24.8456 52.5772 24.4662 52.8493 24.0476 53.0929C25.6304 50.8508 26.9134 48.4795 27.6515 45.8025C27.2412 45.7069 27.1648 45.9899 27.0725 46.2048C26.8829 46.6343 26.6984 47.0641 26.5589 47.5126C25.8823 49.679 24.5267 51.4685 23.3249 53.3409C23.169 53.5823 22.9713 53.7589 22.5687 53.6999C22.7129 53.4783 22.8177 53.3055 22.9371 53.144C23.816 51.9132 24.5803 50.628 24.9971 49.159C25.0793 48.8662 25.2421 48.5996 25.3647 48.3198C26.4197 45.9687 27.0864 43.5029 27.3991 40.9454C27.4952 40.1593 27.4128 39.3503 27.4116 38.5574C27.413 38.4648 27.4 38.3559 27.3534 38.2857C27.2976 38.1995 27.1925 38.0839 27.1098 38.0885C27.0322 38.0933 26.8999 38.2179 26.8939 38.305C26.8643 38.581 26.8332 38.8775 26.8812 39.1485C27.0155 39.8787 26.9448 40.5945 26.8222 41.317C26.477 43.3831 26.0051 45.4197 25.2202 47.3675C24.385 49.4457 23.3216 51.3998 22.0202 53.224C21.8147 53.5134 21.6352 53.8714 21.1384 53.9809C21.1974 53.7996 21.2262 53.6833 21.2754 53.5684C21.5759 52.8789 21.9064 52.2018 22.1867 51.5057C22.9289 49.6528 23.6459 47.7928 24.3881 45.9398C24.9809 44.4573 25.1114 42.886 25.3436 41.332C25.6534 39.2583 25.6912 37.1707 25.6625 35.0785C25.636 33.249 25.6563 31.4124 25.5313 29.5914C25.3889 27.5787 25.1173 25.5725 24.8765 23.5684C24.8143 23.0595 24.6588 22.5595 24.5237 22.061C24.4586 21.8144 24.3163 21.6397 23.9645 21.7387C23.961 21.862 23.9202 22.0033 23.9585 22.1192C24.55 23.9677 24.7559 25.8819 24.8942 27.8068C25.1386 31.2321 25.1876 34.654 24.8451 38.0794C24.6728 39.8075 24.5616 41.545 24.3128 43.2626C24.1611 44.328 23.8911 45.3902 23.5374 46.4003C22.7664 48.5911 21.9196 50.7612 20.6693 52.7383C20.5824 52.8763 20.4659 52.9968 20.3889 53.1407C19.6572 54.4745 18.7177 54.3625 17.1285 54.0455C17.3396 53.3086 17.5756 52.5837 17.7509 51.8443C17.9338 51.0694 18.0713 50.281 18.2088 49.4927C18.3394 48.7295 18.4597 47.9657 18.5651 47.1957C18.6704 46.4256 18.7651 45.66 18.8448 44.8882C18.926 44.0958 18.9819 43.2965 19.0374 42.5024C19.0966 41.7291 19.1456 40.9552 19.1946 40.1812C19.2384 39.4068 19.2771 38.6321 19.3053 37.8619C19.3337 37.0864 19.352 36.3104 19.3596 35.5387C19.369 34.7414 19.3891 33.9396 19.352 33.1441C19.3176 32.3849 19.3973 31.6131 19.1682 30.8403C18.7765 30.9931 18.8764 31.2575 18.8822 31.469C18.9118 32.6655 18.993 33.8604 18.9813 35.0591C18.9627 37.8276 18.8362 40.5937 18.612 43.3582C18.3994 46.0307 18.085 48.6859 17.5613 51.3162C17.4026 52.1134 17.066 52.8775 16.8008 53.6518C16.768 53.7524 16.6799 53.8339 16.5594 54.0108C16.3571 53.7393 16.1654 53.5354 16.0425 53.3054C15.1457 51.6261 14.3553 49.8975 13.8567 48.0453C13.6076 47.1166 13.3007 46.2045 13.0307 45.2795C12.3471 42.9818 12.1884 40.6129 12.1793 38.2389C12.1663 33.4191 12.3786 28.615 13.1447 23.8446C13.4459 21.9659 13.6964 20.0785 14.0485 18.2085C14.5448 15.6021 15.1322 13.0176 15.6487 10.4178C16.0206 8.5595 16.342 6.68737 16.6835 4.82181C16.6996 4.81264 16.7153 4.80856 16.7314 4.79939C16.8006 5.28302 16.8818 5.74174 16.8905 6.2057ZM12.0305 16.7341C11.5302 18.882 11.0145 21.0288 10.5347 23.1782C10.2661 24.3693 9.99712 25.5654 9.83536 26.7742C9.59368 28.6107 9.39774 30.4556 9.26841 32.3051C9.07853 35.0205 9.15579 37.7443 9.26414 40.465C9.3402 42.3958 9.57248 44.3016 9.87719 46.202C10.1206 47.7275 10.4939 49.2363 10.805 50.7511C10.8352 50.9077 10.86 51.069 10.8925 51.2669C10.5534 51.3307 10.3797 51.1641 10.2626 50.9242C10.078 50.5458 9.88825 50.167 9.73545 49.7753C9.18378 48.3879 8.97192 46.9264 8.81238 45.4531C8.49888 42.5738 8.51578 39.6816 8.55758 36.8015C8.58817 34.7443 8.86611 32.6837 9.07125 30.6336C9.22376 29.1152 9.42238 27.6001 9.62576 26.0904C9.95476 23.6679 10.4214 21.2653 11.1406 18.9319C11.8277 16.689 12.6407 14.4857 13.3934 12.2627C13.9577 10.5981 14.4118 8.88975 15.1471 7.28339C15.2631 7.02379 15.2491 6.70868 15.2937 6.43893C14.9044 6.26242 14.8473 6.49013 14.7766 6.69112C14.3718 7.84179 13.9619 8.99216 13.567 10.1487C12.8882 12.1245 12.2498 14.1134 11.5406 16.0819C10.6512 18.5682 10.045 21.1258 9.64164 23.7284C9.21359 26.4631 8.83093 29.2112 8.53572 31.9604C8.22034 34.9244 8.1044 37.9076 8.23546 40.8925C8.30254 42.4365 8.35937 43.9799 8.33243 45.5431C8.1673 44.7387 7.91948 43.9387 7.85277 43.1258C7.72149 41.4691 7.42448 39.8267 7.5215 38.1448C7.74229 34.3247 7.88623 30.4992 8.46017 26.709C8.63371 25.5524 8.96536 24.4172 9.22564 23.2719C9.30743 22.9121 9.40425 22.5586 9.4908 22.2042C9.10455 22.0588 9.04123 22.3014 8.99176 22.4936C8.80542 23.1705 8.644 23.8594 8.45766 24.5362C7.76226 27.1184 7.6689 29.7787 7.39694 32.4162C7.22128 34.1184 7.06541 35.8322 6.99734 37.5418C6.90345 39.8417 6.938 42.1455 7.30878 44.4264C7.56803 46.0199 7.90556 47.5983 8.15861 49.2068C8.02487 48.8371 7.89076 48.4725 7.76762 48.0984C6.90529 45.4845 6.57852 42.7948 6.53857 40.0531C6.50413 37.8215 6.62852 35.6009 6.88171 33.3791C7.08108 31.6323 7.13223 29.87 7.4392 28.1307C7.89523 25.5112 8.37106 22.9034 9.34287 20.4177C10.2027 18.2074 11.1179 16.0163 11.9525 13.7991C12.5721 12.1538 13.1119 10.472 13.6813 8.80773C14.0307 7.78705 14.3603 6.75475 14.6994 5.73335C14.7191 5.67295 14.7743 5.62013 14.8141 5.56628C15.0006 5.69773 15.1716 5.82809 15.3727 5.97086C15.8728 5.37257 15.6327 4.60933 16.05 4.01556C16.0779 4.28008 16.1566 4.55331 16.1233 4.8084C15.9564 6.01689 15.8049 7.22638 15.5721 8.41996C15.002 11.3455 14.3759 14.2621 13.8007 17.1873C13.4738 18.8428 13.1617 20.5097 12.9263 22.1819C12.6059 24.4814 12.3155 26.7933 12.1024 29.1055C11.9357 30.973 11.8764 32.8531 11.8221 34.7336C11.774 36.3777 11.7414 38.0228 11.8068 39.6646C11.9345 42.8449 12.4467 45.9749 13.2724 49.0392C13.6076 50.2828 14.1267 51.4725 14.5563 52.6918C14.6463 52.9503 14.71 53.2173 14.8013 53.5326C14.2542 53.5509 13.944 53.3491 13.7151 52.9418C13.1805 51.9725 12.7995 50.942 12.4137 49.9059C11.6242 47.7965 11.2108 45.6105 10.9385 43.3931C10.7915 42.1832 10.7534 40.9604 10.6634 39.7442C10.6407 39.4801 10.6882 39.1693 10.3469 39.0425C10.1554 39.4255 10.2052 41.3649 10.5309 43.6272C10.7531 45.1615 11.0379 46.6847 11.349 48.1995C11.6604 49.7091 12.2089 51.1426 12.8829 52.621C12.4266 52.5943 12.3043 52.3541 12.1887 52.0937C11.3647 50.1827 10.8338 48.2046 10.5354 46.1398C10.1124 43.2066 9.92211 40.2588 9.78377 37.3043C9.65554 34.4997 9.80873 31.72 10.3055 28.9592C10.3302 28.8271 10.375 28.7015 10.4455 28.5777C10.2899 31.6867 10.068 34.7859 10.3291 37.8983C10.3307 37.9499 10.4101 37.9916 10.5446 38.1297C10.583 37.875 10.6355 37.7138 10.6265 37.5485C10.3708 32.7375 10.7344 27.9801 11.7281 23.2668C12.1812 21.131 12.5227 18.9719 13.0263 16.85C13.523 14.7533 14.1566 12.6868 14.7345 10.6061C14.8714 10.1215 15.0236 9.63778 15.1722 9.13333C14.7841 9.01352 14.7171 9.23544 14.6571 9.43202C14.2405 10.8238 13.8185 12.2205 13.4221 13.6188C13.1684 14.5226 12.9451 15.4337 12.6974 16.3997C12.2565 16.1527 12.1115 16.3845 12.0305 16.7341ZM13.2671 7.58947C12.7342 9.68877 11.9201 11.6861 11.166 13.7082C10.291 16.0616 9.52142 18.4532 8.6969 20.8204C7.92995 23.0269 7.43166 25.2934 7.12115 27.5988C6.88771 29.3174 6.76151 31.0487 6.58954 32.7717C6.46841 33.9885 6.33739 35.1996 6.25212 36.4189C6.05018 39.3805 6.15813 42.3277 6.65833 45.2612C6.7307 45.6988 6.82905 46.133 6.87509 46.5789C6.6344 45.898 6.27956 45.2297 6.16398 44.5266C5.59775 40.9912 5.42449 37.4318 5.77189 33.8626C5.94088 32.1085 6.13001 30.361 6.36012 28.6163C6.46832 27.8053 6.68374 27.0069 6.84794 26.205C6.9351 25.7683 7.05301 25.3339 7.09407 24.894C7.20387 23.6918 7.49561 22.5383 7.92424 21.4151C8.46004 20.011 8.95044 18.5935 9.47122 17.1832C10.2908 14.9598 11.1255 12.7426 11.9454 10.514C12.1739 9.89677 12.3369 9.25949 12.5552 8.6415C12.7541 8.0788 12.9933 7.52917 13.2124 6.97302C13.268 6.98721 13.3285 7.00691 13.3841 7.0211C13.3504 7.20923 13.3162 7.40241 13.2671 7.58947ZM5.33419 44.8341C5.21843 44.5016 5.07121 44.1772 4.98691 43.8367C4.32391 41.1698 4.24118 38.4509 4.44678 35.7315C4.642 33.1606 5.03155 30.6086 5.61911 28.0961C5.67801 27.8428 5.78742 27.6033 5.87706 27.3521C5.93711 27.3769 5.99751 27.3965 6.05756 27.4213C5.00028 33.1908 4.59033 38.9798 5.33419 44.8341ZM12.4044 16.9816C12.4652 16.9961 12.5263 17.0056 12.582 17.0198C12.3052 18.4008 12.0284 19.7817 11.7564 21.1682C11.6851 21.1581 11.6133 21.153 11.5471 21.1433C11.7386 19.7305 12.0054 18.3437 12.4044 16.9816Z" fill="white"/>
<path d="M29.1447 39.9091C29.2545 38.4855 29.3955 37.0589 29.4128 35.634C29.4398 33.9215 29.3901 32.2037 29.3088 30.4939C29.2129 28.4793 29.05 26.4652 28.9024 24.4522C28.8763 24.09 28.7777 23.733 28.712 23.3474C28.3434 23.5379 28.3434 23.5379 28.3507 23.801C28.3769 24.3846 28.4026 24.9732 28.4329 25.6446C27.8782 25.6264 27.866 26.022 27.8592 26.4128C27.8262 27.8418 27.7566 29.2785 27.7855 30.7066C27.8448 33.6865 27.966 36.6655 28.0458 39.6468C28.0888 41.2407 28.1571 42.8415 27.7233 44.4071C27.7029 44.4778 27.7583 44.5692 27.7822 44.6687C27.892 44.6454 27.9995 44.653 28.0123 44.6179C28.5011 43.3701 28.3677 42.0377 28.5037 40.6829C29.0958 40.7552 29.1175 40.2984 29.1447 39.9091ZM28.4826 39.8061C28.4839 36.0324 28.4801 32.2584 28.4814 28.4848C28.5283 28.4778 28.5747 28.476 28.6215 28.4689C29.0934 32.2499 29.1378 36.0318 28.4826 39.8061Z" fill="white"/>
<path d="M19.1128 8.07048C19.2013 8.49883 19.2897 8.92716 19.3782 9.35551C20.0784 12.6685 20.5133 16.0196 20.964 19.3667C21.4864 23.2336 21.9727 27.1031 22.0502 31.0007C22.0984 33.6246 21.9249 36.2536 21.8132 38.8817C21.7446 40.5244 21.5992 42.1618 21.4795 43.8008C21.4637 44.0263 21.392 44.2425 21.3455 44.4658C21.2993 44.4626 21.2532 44.4594 21.2071 44.4561C21.1963 44.3164 21.1602 44.1698 21.175 44.0318C21.563 40.1771 21.7515 36.3032 21.7801 32.4337C21.7929 30.7047 21.585 28.9654 21.4536 27.2367C21.3477 25.8804 21.2264 24.5231 21.0633 23.1732C20.8404 21.3557 20.5654 19.5447 20.3164 17.7305C20.1419 16.4724 19.9929 15.2161 19.792 13.9664C19.512 12.2273 19.1955 10.4959 18.8998 8.76084C18.8632 8.5472 18.868 8.33131 18.8523 8.11398C18.9467 8.08969 19.0297 8.08012 19.1128 8.07048Z" fill="white"/>
<path d="M22.6306 46.1878C22.5792 46.0401 22.5319 45.9801 22.5413 45.919C23.0261 40.3103 23.1206 34.6897 22.8546 29.0697C22.853 29.0181 22.9239 28.9612 22.9922 28.8682C23.2542 29.0976 23.1873 29.3915 23.2107 29.6454C23.413 32.0536 23.4346 34.4697 23.3225 36.8815C23.2068 39.2726 23.112 41.6599 22.9966 44.0458C22.9581 44.7433 22.9299 45.4416 22.6306 46.1878Z" fill="white"/>
<path d="M18.9712 21.6572C18.9939 21.9214 19.0186 22.0828 19.0225 22.2478C19.0273 23.7257 19.0273 25.198 19.0372 26.6763C19.0389 27.0934 19.0868 27.5138 19.0727 27.935C19.0689 28.0634 18.9418 28.1884 18.871 28.3173C18.7757 28.2077 18.6226 28.1147 18.595 27.9943C18.5471 27.7953 18.5574 27.5747 18.5772 27.365C18.7665 25.5403 18.6778 23.7166 18.5375 21.8946C18.5339 21.8737 18.5203 21.8471 18.5268 21.827C18.5713 21.7065 18.6205 21.5915 18.6701 21.4714C18.7836 21.5411 18.9019 21.6163 18.9712 21.6572Z" fill="white"/>
<path d="M21.126 46.3551C21.3946 47.5941 19.861 52.2234 19.0005 53.0436C18.9804 53.037 18.9551 53.0302 18.9404 53.0189C18.9207 53.0072 18.8972 52.9746 18.9027 52.9698C19.9303 50.8639 20.5406 48.6155 21.126 46.3551Z" fill="white"/>
<path d="M21.4024 11.4069C21.1661 10.7366 21.0563 10.4664 20.9169 10.0293C20.6798 9.29713 20.4459 8.51881 20.2194 7.7822C20.186 7.67174 20.1177 7.54333 20.1102 7.42954C20.1054 7.35197 20.1728 7.19711 20.2036 7.19926C20.3009 7.20607 20.4005 7.2543 20.4899 7.30173C20.5246 7.31961 20.5669 7.45121 20.5791 7.4984C20.9081 8.75701 21.2198 9.96812 21.5922 11.343C21.5238 11.364 21.4605 11.3853 21.4024 11.4069Z" fill="white"/>
<path d="M18.4853 18.0761C18.2486 17.6322 18.2035 15.3328 18.4533 14.7788C18.5359 14.9236 18.6267 15.0227 18.6448 15.1321C18.7615 16.0412 18.663 17.7435 18.4853 18.0761Z" fill="white"/>
</svg>
