<svg width="32" height="53" viewBox="0 0 32 53" fill="none" xmlns="http://www.w3.org/2000/svg">
<path d="M28.3342 18.8601C29.3334 21.0462 29.8409 23.2696 30.2372 25.3438L30.3448 25.9036C30.5326 26.8731 30.7267 27.8718 30.8502 28.9154C31.0888 30.9259 31.3297 32.9766 31.127 35.1389C30.9821 36.6854 30.7365 38.7263 30.1168 40.7577C29.8338 41.6817 29.461 42.5772 29.0103 43.4117C28.882 43.6507 28.7535 43.897 28.6253 44.136C28.0295 45.2743 27.4178 46.4557 26.4669 47.4618C24.8448 49.48 22.8744 50.6503 21.1577 51.5279C20.6174 51.807 20.0201 52.0551 19.3872 52.2801C18.1768 52.7065 17.0073 52.8983 15.8129 52.8675C15.6169 52.8606 15.4207 52.861 15.2209 52.8577C14.1967 52.8437 13.0418 52.8252 11.8289 52.4885C10.4434 52.1022 9.08395 51.6986 7.74863 51.0197C7.12025 50.6998 6.52372 50.301 5.97676 49.835C4.79451 48.8307 3.95427 47.6059 3.34795 46.6545C2.34917 45.0789 1.53324 43.2625 0.771075 40.9466C0.334378 39.6123 0.234058 38.3225 0.174468 37.2193L0.168235 37.0847C0.144408 36.6224 0.120611 36.16 0.0750075 35.6969C-0.0657652 34.2131 0.0196851 32.8062 0.103379 31.4501L0.145983 30.7502C0.232972 29.2998 0.32524 27.8022 0.552426 26.2913C1.14939 22.3077 2.17112 18.8549 3.67156 15.7423C3.88326 15.2991 4.09501 14.8559 4.30296 14.4162C4.80127 13.3616 5.31888 12.275 5.87603 11.2007C6.47201 10.0551 7.17132 8.96755 7.78999 8.0044L7.86288 7.8943C8.43572 6.99495 9.03514 6.06382 9.76391 5.17355C10.5117 4.25852 11.294 3.39557 12.0501 2.55713C12.3526 2.21885 12.6623 1.88085 12.9613 1.53882C13.037 1.45425 13.1161 1.37347 13.1914 1.29616L13.2669 1.21878C14.5348 -0.230431 16.496 -0.409022 17.9255 0.800072C18.5077 1.29643 18.987 1.82555 19.3743 2.39141C19.6404 2.78225 19.8557 3.17132 20.0473 3.51232C20.1979 3.77921 20.3345 4.03103 20.4693 4.22833C22.094 6.61069 23.6475 9.26309 25.2226 12.3378C26.2567 14.3579 27.2019 16.4259 28.1204 18.4275L28.3342 18.8601Z" fill="#FFE489"/>
<path d="M26.7525 42.1956C27.1255 41.5037 27.4312 40.7621 27.6646 40.0108C28.1732 38.3497 28.4112 36.6321 28.5731 34.908C28.7487 33.0028 28.5278 31.1091 28.3031 29.219C28.1684 28.0805 27.9316 26.9531 27.7166 25.8264C27.3292 23.807 26.8613 21.8066 26.0038 19.9307C25.0143 17.7777 24.0358 15.6213 22.9542 13.505C21.5697 10.8004 20.0697 8.17532 18.3623 5.66653C17.9613 5.07839 17.672 4.41415 17.271 3.82601C16.9979 3.42766 16.6581 3.06331 16.2876 2.74877C15.9135 2.43046 15.5469 2.5195 15.2101 2.90382C15.1117 3.01666 15.0028 3.1182 14.9006 3.23454C13.8528 4.41527 12.7698 5.56567 11.7678 6.78797C11.0999 7.60041 10.5345 8.49275 9.96571 9.38133C9.33551 10.3622 8.70505 11.3504 8.1677 12.3782C7.40063 13.8449 6.71563 15.3544 5.99861 16.8447C4.49818 19.9573 3.61239 23.2622 3.10129 26.6601C2.86456 28.2362 2.78303 29.8431 2.68747 31.435C2.60454 32.7693 2.51434 34.1034 2.64216 35.4378C2.69223 35.981 2.71677 36.5269 2.74857 37.0731C2.80318 38.1106 2.89083 39.1384 3.21579 40.1345C3.80723 41.9285 4.50956 43.6682 5.52184 45.2733C6.4033 46.6704 7.38719 47.9439 8.9187 48.7277C10.0718 49.3167 11.2949 49.6719 12.5185 50.0126C13.609 50.316 14.7516 50.2686 15.8808 50.2972C16.8029 50.3221 17.6808 50.1565 18.5379 49.8558C19.0346 49.6806 19.5213 49.4795 19.9912 49.2379C21.6599 48.3841 23.2382 47.4109 24.531 45.77C25.4538 44.8392 26.0571 43.4831 26.7525 42.1956ZM19.2055 46.8667C18.8486 46.8906 18.785 47.0482 18.7003 47.1834C18.295 47.8633 17.8935 48.5397 17.4774 49.2156C17.3504 49.4183 17.2156 49.6352 16.8354 49.5965C17.1532 48.0923 17.6943 46.6468 17.6717 45.1089C17.6356 45.1004 17.5961 45.0881 17.5601 45.0796C17.528 45.1657 17.4739 45.2582 17.4708 45.3454C17.3974 46.72 16.9603 47.9983 16.505 49.2797C16.4002 49.574 16.2249 49.7024 15.9236 49.6955C15.437 49.6857 14.9431 49.6757 14.4593 49.6915C14.1174 49.7014 13.9668 49.5399 13.8392 49.2375C13.0974 47.4855 12.4326 45.7108 12.1391 43.8146C11.8283 41.787 11.4372 39.7712 11.1703 37.7379C11.0178 36.5879 10.9936 35.4097 10.9906 34.2468C10.9822 32.197 11.0104 30.1413 11.0674 28.0938C11.1005 26.8341 11.1916 25.5763 11.2973 24.3191C11.4244 22.761 11.5767 21.2075 11.7401 19.6506C11.8002 19.075 11.8245 18.4835 12.1083 17.952C12.1318 17.9019 12.0949 17.817 12.0677 17.6598C11.9222 17.7674 11.786 17.8171 11.7539 17.9032C11.6339 18.2188 11.4991 18.5411 11.4621 18.8705C11.2541 20.6656 11.0931 22.466 10.8778 24.2608C10.6052 26.5515 10.6813 28.8471 10.6811 31.1436C10.6798 32.9495 10.6274 34.761 10.7097 36.5662C10.8057 38.7099 11.215 40.8281 11.5918 42.9416C11.6857 43.479 11.7575 44.023 11.9027 44.5477C12.1761 45.5638 12.4715 46.5734 12.7889 47.5765C12.9229 48.0064 13.1305 48.4097 13.2903 48.8295C13.3733 49.0541 13.4267 49.2921 13.4947 49.5307C12.8596 49.6103 12.7127 49.5506 12.526 49.0717C12.0389 47.8265 11.5629 46.578 11.1089 45.3231C10.7149 44.2228 10.3797 43.1028 9.98922 42.0063C9.67498 41.1196 9.63081 40.1987 9.5356 39.2833C9.38305 37.8244 9.29256 36.3569 9.18382 34.8923C9.16615 34.67 9.19603 34.4385 9.16734 34.2195C9.15561 34.1391 9.0345 34.0695 8.96445 33.9944C8.90359 34.0722 8.81397 34.1417 8.78189 34.2278C8.75357 34.3104 8.7718 34.4128 8.77576 34.5074C8.87552 35.9171 8.97175 37.3232 9.07526 38.7294C9.10041 39.0501 9.15487 39.3644 9.16549 39.6846C9.22805 41.431 9.87738 43.0235 10.4166 44.6484C10.5808 45.1484 10.7155 45.6618 10.8983 46.1514C11.2303 47.0497 11.5916 47.9417 11.9346 48.8367C11.9946 48.9914 12.0363 49.1491 12.1188 49.3882C11.6125 49.3196 11.3423 49.0449 11.1765 48.6939C10.7841 47.859 10.4285 47.0108 10.062 46.1659C9.99121 46.0071 9.94623 45.8384 9.80937 45.6992C9.7443 46.8343 10.4463 47.7527 10.6843 48.8439C10.2573 48.7926 9.99106 48.6126 9.81049 48.2683C9.20025 47.1169 8.68189 45.936 8.25992 44.7003C7.46598 42.3579 6.89182 39.9649 6.55223 37.5148C6.13079 34.495 6.15639 31.4725 6.53092 28.4478C6.65752 27.4238 6.8242 26.3976 6.96182 25.3705C6.97663 25.2583 6.92989 25.1404 6.89444 24.9066C6.7607 25.0945 6.66728 25.1676 6.64597 25.2577C6.54564 25.7375 6.44529 26.2173 6.38475 26.7021C6.16317 28.573 5.87302 30.4307 5.86869 32.3237C5.85772 34.5109 5.93436 36.6865 6.34216 38.8483C6.71924 40.8492 7.14037 42.837 7.8549 44.7479C8.25717 45.8194 8.70729 46.8744 9.13885 47.9396C9.18561 48.0575 9.23584 48.1792 9.32336 48.3785C9.14366 48.3213 9.02051 48.3098 8.92066 48.2554C8.26828 47.8947 7.74414 47.4003 7.28509 46.8102C5.998 45.1664 5.08543 43.3067 4.23572 41.4165C3.84463 40.5453 3.59023 39.6098 3.49303 38.6471C3.38486 37.5823 3.24041 36.5161 3.16879 35.4453C3.12105 34.7314 3.12786 34.0158 3.18174 33.3055C3.31242 31.5404 3.49017 29.7806 3.63537 28.016C3.73075 26.8456 3.96301 25.7091 4.26412 24.5786C4.41029 24.035 4.52413 23.4794 4.59446 22.9222C4.72157 21.8838 5.01766 20.8984 5.39304 19.9304C5.88769 18.6686 6.40734 17.4186 6.93778 16.1725C7.73808 14.2746 8.80236 12.5167 9.96602 10.8276C11.2061 9.03226 12.5242 7.29046 13.8245 5.53714C14.2172 5.00942 14.67 4.53102 15.1018 4.0301C15.1376 4.04589 15.1734 4.06163 15.2129 4.07392C15.1144 4.39752 15.0123 4.71743 14.9211 5.04128C14.4003 6.94537 13.8725 8.84915 13.359 10.7535C12.9411 12.316 12.5446 13.8864 12.1375 15.4529C12.074 15.7087 12.0106 15.9645 11.9652 16.2245C11.9343 16.3797 11.9462 16.5582 12.1497 16.5581C12.2295 16.5609 12.3548 16.4089 12.3801 16.3081C12.671 15.159 12.9331 14.0017 13.2347 12.8567C13.851 10.5054 14.485 8.16557 15.1156 5.82199C15.178 5.59524 15.2802 5.37354 15.4002 5.05796C15.5706 5.2783 15.6893 5.41331 15.7821 5.56554C16.5353 6.78735 17.1295 8.08716 17.6718 9.41426C18.2439 10.826 18.8527 12.2245 19.4726 13.6197C20.4769 15.8713 21.5034 18.1092 22.2568 20.4684C23.1244 23.1986 23.8271 25.9703 24.2586 28.8052C24.3709 29.5431 24.308 30.304 24.369 31.0547C24.5875 33.8495 24.2779 36.575 23.4758 39.2541C22.8258 41.4262 21.9468 43.4958 20.8169 45.4695C20.1245 46.6699 19.2802 47.7451 18.457 48.8428C18.335 49.0057 18.1918 49.1533 18.0591 49.3122C18.0308 49.2894 17.9953 49.2663 17.967 49.2436C18.3723 48.4583 18.7333 47.6933 19.2055 46.8667ZM16.5094 5.23847C17.4629 6.86336 18.4314 8.47423 19.3402 10.1266C20.471 12.1901 21.598 14.2571 22.5179 16.4259C23.3603 18.4212 24.0737 20.4665 24.5301 22.59C24.9363 24.4865 25.2949 26.3922 25.6828 28.2917C25.726 28.5112 25.7018 28.7866 26.0624 28.97C26.0583 28.6719 26.0884 28.4331 26.0417 28.2098C25.7093 26.4903 25.4025 24.768 25.0043 23.0608C24.666 21.6136 24.2619 20.1787 23.7987 18.7708C23.119 16.694 22.1925 14.7139 21.1736 12.7779C20.5468 11.5786 19.9314 10.3689 19.2751 9.18316C18.6699 8.09732 18.02 7.03905 17.3887 5.97048C16.9632 5.25067 16.5416 4.5273 16.1507 3.75419C16.2951 3.88641 16.4469 4.01168 16.58 4.15441C17.7108 5.38215 18.5961 6.77568 19.4215 8.21804C20.6062 10.2943 21.8095 12.3604 22.9425 14.4639C23.9594 16.3527 24.8284 18.3162 25.4946 20.3635C25.9472 21.7601 26.4735 23.1303 26.9152 24.5302C27.1447 25.2431 27.2967 25.9862 27.427 26.7284C27.6885 28.191 27.9281 29.6529 28.0396 31.143C28.2581 34.0431 28.0203 36.8982 27.2827 39.7068C26.935 41.0283 26.2721 42.2152 25.588 43.3868C24.9929 44.4053 24.2319 45.2835 23.3895 46.0971C22.957 46.5144 22.5281 46.9355 22.0921 47.349C21.9982 47.4366 21.8798 47.4979 21.7083 47.5173C21.7802 47.4363 21.8413 47.3512 21.9167 47.2739C23.0015 46.178 23.813 44.8946 24.5359 43.5463C24.952 42.765 25.3609 41.9834 25.7342 41.1789C26.2293 40.1133 26.4764 38.97 26.6729 37.8177C27.0345 35.6828 27.2984 33.5336 27.3705 31.3667C27.4278 29.6209 27.1384 27.9174 26.6298 26.2499C26.3493 25.3317 26.0359 24.4232 25.7334 23.5114C25.6974 23.3975 25.6211 23.2931 25.5396 23.1304C25.374 23.3971 25.5058 23.5762 25.5576 23.7597C25.9219 25.0842 26.3266 26.3992 26.6324 27.7362C26.8278 28.5934 26.9493 29.4842 26.9694 30.3643C26.9949 31.5062 26.9076 32.6551 26.8135 33.7892C26.7435 34.6479 26.5865 35.5036 26.4657 36.3606C26.2244 38.0673 25.7311 39.7071 25.1372 41.3143C24.2987 43.5779 22.9272 45.4959 21.2326 47.1955C20.9802 47.4519 20.721 47.6936 20.4616 47.9426C20.4353 47.9671 20.3952 47.9693 20.2959 48.0058C20.5042 47.7624 20.668 47.5464 20.8491 47.3565C21.8823 46.2807 22.8132 45.1177 23.6022 43.8552C23.9949 43.2221 24.2168 42.4886 24.5135 41.7976C25.087 40.4623 25.4704 39.0584 25.8101 37.6531C26.0564 36.637 26.1299 35.5712 26.2463 34.5287C26.4194 33.005 26.2581 31.4841 26.1624 29.9582C26.1544 29.8743 26.1137 29.793 26.0712 29.657C25.8719 29.8499 25.9231 30.0479 25.928 30.2189C25.9463 31.2551 26.0337 32.2902 25.976 33.3202C25.9028 34.6876 25.8 36.0684 25.5604 37.4155C25.3534 38.5565 24.9441 39.6615 24.582 40.7717C24.3341 41.5225 24.0467 42.261 23.7235 42.9837C23.5185 43.4417 23.277 43.9057 22.9655 44.2945C22.0348 45.4502 21.0582 46.5717 20.092 47.7044C20.0201 47.7855 19.9202 47.8365 19.7778 47.8569C20.1826 47.1916 20.5448 46.4956 20.9956 45.8645C21.8399 44.684 22.3552 43.3538 22.8957 42.0281C23.6587 40.158 24.2564 38.2312 24.5697 36.2326C24.8317 34.5557 24.8763 32.8639 24.852 31.1661C24.8157 28.9809 24.3735 26.8652 23.8508 24.7684C23.4075 22.9978 22.913 21.2399 22.3596 19.5018C21.9961 18.359 21.519 17.245 21.0527 16.1349C20.0395 13.7231 18.9968 11.3246 17.9689 8.91951C17.3808 7.55084 16.7666 6.19948 15.9306 4.9566C15.7925 4.74829 15.5924 4.54868 15.7458 4.11071C16.046 4.56815 16.3036 4.88971 16.5094 5.23847Z" fill="white"/>
<path d="M18.0812 46.6022C18.1363 46.3752 18.1627 46.1399 18.2394 45.9209C18.8812 44.0865 19.4045 42.2152 19.6028 40.2817C19.7672 38.6958 19.8813 37.0937 19.8752 35.4982C19.8705 33.6557 19.7897 31.807 19.6028 29.9799C19.4296 28.2805 19.0704 26.6 18.7878 24.9114C18.6557 24.1146 18.4981 23.3205 18.3588 22.5235C18.3314 22.3736 18.2322 22.1921 18.4916 22.0486C18.5499 22.1487 18.6448 22.2428 18.6627 22.3525C19.0797 24.6672 19.5843 26.9705 19.8774 29.2954C20.2416 32.1861 20.3615 35.1009 20.1359 38.0219C19.991 39.8846 19.7957 41.731 19.322 43.535C19.0711 44.4783 18.766 45.4088 18.4718 46.3433C18.4349 46.4619 18.3333 46.5637 18.2639 46.6776C18.2063 46.6611 18.142 46.6298 18.0812 46.6022Z" fill="white"/>
<path d="M12.854 10.227C12.6313 10.6735 12.4364 11.0518 12.2488 11.4305C11.7249 12.4878 11.4994 13.6391 11.202 14.7661C10.4481 17.625 9.87813 20.523 9.48136 23.4562C9.27042 25.0222 9.045 26.5878 9.0368 28.1754C9.03716 28.477 9.05929 28.7794 9.0524 29.0808C9.04931 29.2733 9.11553 29.5627 8.81417 29.5558C8.55636 29.5504 8.602 29.2831 8.61184 29.1054C8.67397 27.8467 8.66728 26.5818 8.81626 25.3334C9.12705 22.677 9.54275 20.0352 10.1354 17.4251C10.5085 15.792 10.925 14.1677 11.3918 12.5597C11.5898 11.8835 11.9535 11.2494 12.2701 10.61C12.3561 10.4386 12.4416 10.1763 12.854 10.227Z" fill="white"/>
<path d="M16.6768 9.91376C16.7441 9.96335 16.8447 9.9959 16.8825 10.059C20.2652 16.2092 22.3584 22.7613 22.9933 29.7603C23.0322 30.2087 23.1176 30.6768 22.9962 31.134C22.6515 31.1184 22.6699 30.9046 22.6618 30.7226C22.6339 30.2711 22.6316 29.8168 22.5817 29.3717C22.2897 26.807 21.8988 24.2642 21.2121 21.7657C20.5221 19.2561 19.696 16.7962 18.6417 14.4156C18.0321 13.0389 17.3449 11.6994 16.6947 10.3395C16.6404 10.2286 16.6156 10.1042 16.5761 9.98656C16.6097 9.96229 16.6432 9.93803 16.6768 9.91376Z" fill="white"/>
<path d="M9.55303 44.1966C9.18482 44.231 9.12233 44.0435 9.08888 43.857C8.83664 42.5473 8.5551 41.2439 8.35418 39.9214C7.96657 37.3897 7.83052 34.834 7.7235 32.2793C7.70689 31.9226 7.69757 31.5662 7.66643 31.209C7.65074 31.034 7.66981 30.9039 7.87407 30.8819C8.06356 30.8667 8.14309 30.9822 8.16629 31.1502C8.17528 31.205 8.166 31.2628 8.16773 31.3174C8.23359 32.9694 8.24836 34.6269 8.37254 36.2737C8.48377 37.7711 8.67863 39.2677 8.88473 40.7539C8.97704 41.4403 9.18252 42.1124 9.33691 42.79C9.43708 43.2514 9.5192 43.7085 9.55303 44.1966Z" fill="white"/>
<path d="M14.5206 21.5028C14.5413 21.638 14.5803 21.7702 14.5828 21.9083C14.5956 24.5578 14.5902 27.2103 14.6176 29.8603C14.6382 31.8705 14.7097 33.8824 14.7594 35.8936C14.77 36.2138 14.7879 36.5342 14.784 36.8539C14.7799 36.97 14.7323 37.0846 14.6984 37.2215C14.3596 37.1443 14.4153 36.9028 14.4108 36.7173C14.3838 35.5135 14.3531 34.3133 14.3443 33.1066C14.3236 30.2679 14.3173 27.4297 14.311 24.5915C14.3069 23.6683 14.3063 22.749 14.313 21.8299C14.313 21.7245 14.3493 21.6204 14.3639 21.5155C14.415 21.51 14.466 21.5046 14.5206 21.5028Z" fill="white"/>
<path d="M11.4397 11.7076C11.3946 11.855 11.3824 11.9927 11.3135 12.092C10.0855 13.8551 9.30101 15.8227 8.65959 17.8534C8.35329 18.8202 8.0578 19.7909 7.75876 20.758C7.73445 20.8298 7.72435 20.9094 7.67527 20.9622C7.6337 21.008 7.54136 21.052 7.4873 21.0392C7.43324 21.0264 7.34543 20.9398 7.3507 20.8927C7.37785 20.6357 7.39823 20.3639 7.47944 20.1196C7.76366 19.2647 8.0551 18.41 8.3716 17.5672C8.80387 16.4267 9.22545 15.2822 9.7258 14.1695C10.0881 13.3682 10.572 12.6221 10.9951 11.8483C11.0765 11.7022 11.1812 11.6186 11.4397 11.7076Z" fill="white"/>
<path d="M15.6 8.49516C15.5664 8.6248 15.5559 8.71893 15.5166 8.80477C14.9688 10.1301 15.0095 11.5668 14.7288 12.9452C14.47 14.2188 14.4391 15.5187 14.4009 16.8183C14.3981 17.0035 14.4641 17.1947 14.4468 17.3794C14.436 17.4808 14.3235 17.5787 14.2584 17.6745C14.174 17.5916 14.0494 17.5182 14.0237 17.4229C13.9827 17.2434 14.0004 17.0513 13.9997 16.8623C14.0138 15.1077 14.2413 13.3787 14.5449 11.656C14.7037 10.7495 14.8481 9.84244 15.0142 8.93616C15.0408 8.79901 15.1182 8.66362 15.2091 8.55778C15.2547 8.50123 15.3775 8.52009 15.6 8.49516Z" fill="white"/>
<path d="M15.6866 11.4272C16.023 11.3662 16.0497 11.5379 16.0885 11.6774C16.7467 14.0551 17.4015 16.429 18.0525 18.8064C18.1072 19.0082 18.1547 19.2097 18.1766 19.414C18.1843 19.5051 18.1227 19.6047 18.0896 19.7198C17.798 19.6406 17.7731 19.418 17.7179 19.2308C17.0869 16.9049 16.4632 14.5793 15.843 12.2574C15.776 11.9898 15.742 11.7125 15.6866 11.4272Z" fill="white"/>
<path d="M21.8998 31.8334C21.6416 31.6317 21.7156 31.3872 21.7192 31.1802C21.766 29.4231 21.6305 27.6815 21.3019 25.9585C21.1121 24.9416 20.882 23.9343 20.674 22.9204C20.637 22.7302 20.6148 22.5332 20.5888 22.3397C20.6256 22.3265 20.6624 22.3133 20.7065 22.3003C20.7618 22.3821 20.8467 22.4504 20.8689 22.5421C21.6039 25.2204 22.0537 27.9469 22.1311 30.7258C22.1395 31.0059 22.1041 31.2918 22.0654 31.5666C22.0551 31.6534 21.9652 31.7303 21.8998 31.8334Z" fill="white"/>
<path d="M20.0766 43.7794C19.9538 43.5498 20.1133 43.3519 20.1962 43.1622C20.8542 41.6989 21.2716 40.151 21.7068 38.6146C21.8765 38.0209 21.9384 37.3944 22.0288 36.7835C22.1937 35.7027 22.3441 34.6215 22.5053 33.5442C22.5291 33.3815 22.5889 33.2274 22.6305 33.0763C22.6816 33.0708 22.7002 33.0605 22.7144 33.0683C22.7325 33.0725 22.7572 33.0916 22.7567 33.1061C22.7341 33.4432 22.7224 33.7771 22.6817 34.11C22.3479 36.8019 21.9742 39.4887 20.9804 42.0377C20.7689 42.579 20.5502 43.12 20.3242 43.6608C20.3044 43.7074 20.2555 43.7529 20.211 43.7805C20.1852 43.7905 20.1384 43.7779 20.0766 43.7794Z" fill="white"/>
<path d="M13.9468 6.72228C13.942 6.75481 13.9542 6.82064 13.9274 6.85968C13.2146 7.91765 12.6229 9.04527 12.1097 10.212C12.1017 10.2335 12.0402 10.2277 11.9595 10.2467C11.9373 10.1551 11.8758 10.0439 11.9004 9.96481C11.9938 9.68101 12.0911 9.39367 12.2312 9.12966C12.6172 8.37642 13.021 7.63473 13.4248 6.893C13.5223 6.70381 13.6482 6.53016 13.9468 6.72228Z" fill="white"/>
<path d="M16.5706 37.3088C16.8408 37.4781 16.7964 37.7091 16.7891 37.9196C16.753 39.0557 17.0186 40.1915 16.7538 41.3232C16.7455 41.352 16.6617 41.36 16.54 41.4103C16.4371 40.9234 16.6055 40.4714 16.5922 40.0203C16.5789 39.5693 16.5981 39.123 16.592 38.6722C16.5897 38.2179 16.5764 37.7668 16.5706 37.3088Z" fill="white"/>
</svg>
