<svg width="31" height="55" viewBox="0 0 31 55" fill="none" xmlns="http://www.w3.org/2000/svg">
<path d="M22.1046 7.1799C21.567 6.17847 21.0314 5.18175 20.4796 4.18609L20.375 3.99572C19.8299 3.00289 19.1475 1.76637 17.9357 0.782538C17.7952 0.667627 17.6575 0.573771 17.5285 0.487431C16.4045 -0.210598 15.0475 -0.155384 13.9802 0.630351L13.8699 0.71374C13.1869 1.2168 12.247 1.90674 11.6714 3.14187C11.2577 4.02357 10.8421 4.90043 10.4265 5.77736L10.204 6.25496C9.91241 6.87683 9.61415 7.49584 9.31588 8.11487C8.63795 9.53538 7.93344 10.9999 7.27191 12.4747C6.59144 13.9849 6.00072 15.5252 5.41466 17.036C5.30408 17.3244 5.19159 17.6081 5.08101 17.8965C4.61587 19.0759 4.13846 20.2935 3.79011 21.5975C3.2101 23.7539 2.79038 25.9232 2.37896 28.017C1.77456 31.1139 1.44357 34.1335 1.39914 36.9986C1.37295 38.7983 1.38738 40.7533 1.44242 43.1516C1.47228 44.336 1.55391 45.5938 1.69569 46.8769C1.88581 48.6225 2.64948 50.225 3.89947 51.5091C4.22105 51.8389 4.5415 52.0971 4.87507 52.3058C5.16275 52.4831 5.46263 52.6224 5.76816 52.7205C7.42079 53.2326 8.69337 53.5992 9.89512 53.9002C11.1713 54.221 12.3987 54.2015 13.54 54.1337C14.4334 54.0829 15.3327 54.074 16.2874 54.0649L17.0761 54.0565C19.1522 54.0264 20.9008 53.3089 22.1947 52.6864C24.5816 51.5337 26.3739 49.7184 27.5128 47.2863C27.7571 46.7667 28.0317 46.1849 28.2679 45.5632C29.0014 43.6494 29.8004 41.4044 30.0561 38.9525C30.4206 35.4264 30.4639 32.5451 30.1887 29.9034C30.0302 27.3861 29.3747 25.0643 28.7356 22.8244L28.6371 22.4708C28.1861 20.8749 27.6125 19.3452 27.0561 17.8584L26.749 17.0298C25.9701 14.9238 24.9965 12.459 23.6951 10.1155C23.1596 9.14653 22.6344 8.16228 22.1046 7.1799Z" fill="#FFE489"/>
<path d="M26.1753 23.1775C25.6722 21.3977 24.9901 19.6681 24.3479 17.928C23.5133 15.6839 22.6214 13.463 21.4573 11.3632C20.368 9.39377 19.3292 7.39838 18.2399 5.42895C17.7082 4.46946 17.2032 3.49369 16.3185 2.77099C16.0201 2.52597 15.7855 2.4934 15.5134 2.69748C14.9284 3.12772 14.3261 3.54274 14.0013 4.23339C13.5128 5.27272 13.0196 6.31397 12.5292 7.34853C11.554 9.40428 10.552 11.4487 9.61696 13.5215C8.96395 14.9762 8.39116 16.465 7.81838 17.9538C7.26922 19.3777 6.66566 20.7902 6.2721 22.2565C5.72037 24.3184 5.30894 26.4123 4.89945 28.5109C4.34748 31.3262 4.01214 34.1703 3.96963 37.0402C3.93752 39.0583 3.96544 41.0743 4.01155 43.0941C4.04039 44.2623 4.12165 45.437 4.24968 46.6039C4.37973 47.8032 4.89464 48.8581 5.74262 49.723C5.96656 49.9483 6.24018 50.1867 6.53709 50.2772C7.85655 50.6914 9.18445 51.0854 10.5265 51.4184C11.4639 51.6545 12.4261 51.6369 13.3939 51.5782C14.6116 51.5073 15.8304 51.5078 17.0482 51.4922C18.492 51.4738 19.8189 50.9875 21.089 50.3747C22.9485 49.4794 24.3217 48.066 25.2012 46.1984C25.4398 45.6921 25.6811 45.1792 25.8843 44.6539C26.6215 42.722 27.3014 40.758 27.5146 38.6944C27.8089 35.8447 27.9449 32.9868 27.6413 30.1239C27.4956 27.7345 26.8183 25.4546 26.1753 23.1775ZM8.9817 25.6041C8.99328 26.4691 9.00674 27.3388 9.01356 28.2057C9.02018 29.5657 9.02016 30.9228 9.02202 32.2847C9.02887 34.5364 8.91551 36.7922 9.22751 39.0314C9.56682 41.4479 9.9043 43.8596 10.3065 46.2672C10.4692 47.2595 10.7959 48.2188 11.0472 49.1973C11.1662 49.67 11.2737 50.1417 11.3879 50.6162C11.3355 50.6374 11.2878 50.6566 11.2355 50.6778C11.1567 50.5102 11.0407 50.3466 11.0019 50.1684C10.5896 48.435 10.1517 46.7065 9.7956 44.9615C9.18256 41.9909 9.01652 38.9616 8.81531 35.941C8.61723 32.9966 8.42681 30.0436 8.6607 27.0853C8.72733 26.222 8.83299 25.3595 8.91107 24.4971C8.93776 24.2205 8.93962 23.9372 8.95294 23.6549C9.03092 22.7648 9.10423 21.8767 9.20034 20.9904C9.26326 20.4332 9.37192 19.8796 9.45105 19.3214C9.47429 19.1459 9.46803 18.9656 9.47506 18.7911C9.12201 18.7399 9.12656 18.9707 9.09471 19.1387C8.95454 19.9708 8.79815 20.8039 8.71045 21.6425C8.5176 23.5096 8.31998 25.3786 8.2025 27.254C8.11288 28.6362 8.07576 30.0249 8.12918 31.4047C8.23564 34.0537 8.39264 36.7044 8.57539 39.3503C8.81935 42.8743 9.39027 46.3439 10.3024 49.753C10.3662 49.9932 10.3918 50.2486 10.4337 50.5031C10.0119 50.7068 9.86706 50.4717 9.74311 50.2061C9.49522 49.6748 9.26167 49.1377 9.01377 48.6064C8.93691 48.4436 8.84288 48.2933 8.72581 48.0858C8.34106 48.5182 8.70936 48.8402 8.76867 49.1652C8.82999 49.5226 8.9752 49.8683 9.08423 50.2341C8.56308 50.3837 8.4503 50.0361 8.33294 49.7456C7.75495 48.3562 7.30939 46.9243 7.01528 45.4423C6.39113 42.2934 6.23032 39.1124 6.15821 35.9178C6.0884 32.8385 6.31241 29.7734 6.50682 26.7037C6.57836 25.6058 6.77388 24.5132 6.937 23.4225C7.04706 22.7078 7.16664 21.9892 7.3311 21.2858C7.46362 20.7226 7.68408 20.185 7.86431 19.6303C7.91871 19.6415 7.9731 19.6527 8.02466 19.6707C7.94241 20.1526 7.84677 20.6288 7.78265 21.1144C7.71569 21.6068 7.54475 22.1023 7.67735 22.6636C8.17177 22.5026 8.17425 22.125 8.24655 21.7967C8.51231 20.6036 8.75517 19.4087 9.0343 18.2213C9.92149 14.4397 11.4334 10.9153 13.374 7.56112C13.502 7.34323 13.628 7.12054 13.8123 6.91866C13.6029 7.83971 13.3933 8.7608 13.1838 9.68185C12.4698 12.7953 11.9352 15.9415 11.6239 19.1193C11.4001 21.4309 11.1373 23.7417 11.0052 26.0606C10.8748 28.3566 10.8685 30.658 10.8297 32.9613C10.7708 36.3252 11.1285 39.6647 11.3843 43.0123C11.5642 45.4045 11.9635 47.7636 12.5638 50.0857C12.6199 50.3067 12.6569 50.5356 12.5939 50.8047C12.5037 50.6362 12.3878 50.4725 12.3261 50.2925C11.6071 48.1291 10.9473 45.9475 10.6371 43.6854C10.3259 41.4071 9.95465 39.131 9.77791 36.8427C9.59218 34.4362 9.59431 32.0147 9.51536 29.5983C9.4905 28.7553 9.47512 27.9085 9.43882 27.0646C9.33303 24.6091 9.62794 22.1858 10.1098 19.7865C10.468 18.0133 10.9187 16.2635 11.3218 14.5054C11.3801 14.2658 11.4269 14.0254 11.4785 13.7829C11.4269 13.765 11.3734 13.7423 11.3219 13.7244C11.246 13.8381 11.1434 13.9405 11.1057 14.0665C10.378 16.5429 9.70192 19.0373 9.34745 21.6011C9.27856 22.0887 9.23919 22.581 9.15693 23.0629C9.12042 23.2604 9.01337 23.4476 8.94059 23.6377C8.95718 24.2957 8.9718 24.949 8.9817 25.6041ZM15.0349 45.1655C15.0724 46.081 15.1261 46.9954 15.1961 47.9088C15.2632 48.8289 15.4303 49.7362 15.4804 50.6964C15.0415 50.6522 15.0215 50.3833 14.9693 50.1717C14.7903 49.4409 14.5953 48.7111 14.4792 47.9714C13.9446 44.5094 13.6073 41.0286 13.5484 37.5239C13.5114 35.3897 13.4009 33.2518 13.4011 31.1136C13.4069 28.9067 13.509 26.7053 13.5815 24.4991C13.5997 23.9821 13.6522 23.4679 13.6771 22.9538C13.6824 22.8298 13.6372 22.704 13.6032 22.5239C13.2529 22.6987 13.2967 22.9856 13.2804 23.2193C13.1684 24.7657 13.0012 26.3121 12.9884 27.8572C12.9614 30.7928 13.0268 33.7242 13.0437 36.6587C13.0629 39.9966 13.3434 43.3231 13.7449 46.6339C13.8598 47.5901 14.0729 48.5287 14.225 49.4809C14.2922 49.908 14.4845 50.3289 14.323 50.793C13.9741 50.8342 13.9016 50.5865 13.8284 50.3779C13.5731 49.6225 13.2711 48.8749 13.1025 48.1011C12.7033 46.2904 12.2697 44.477 12.0288 42.6467C11.7321 40.418 11.5688 38.1631 11.4417 35.9157C11.3452 34.2099 11.4576 32.4861 11.3773 30.7792C11.2303 27.7145 11.5917 24.6881 11.853 21.6468C12.1262 18.4843 12.5015 15.3416 13.1049 12.2285C13.5078 10.1547 13.8429 8.06392 14.6592 6.09456C14.7131 5.96753 14.7708 5.85006 14.9174 5.74655C14.8385 6.64807 14.7873 7.54945 14.6836 8.44439C14.3318 11.5222 13.9571 14.5984 13.6168 17.6772C13.5327 18.4423 13.5603 19.2232 13.5448 19.9939C13.545 20.0492 13.6023 20.1091 13.659 20.2081C14.0362 20.0723 14.0266 19.7605 14.0409 19.4667C14.0675 18.902 14.0388 18.3376 14.1017 17.7804C14.4546 14.7464 14.8342 11.7237 15.187 8.68968C15.3194 7.5505 15.4089 6.40103 15.5232 5.2581C15.5342 5.14838 15.5663 5.03568 15.6215 4.74747C15.8529 5.19682 16.0399 5.48135 16.1621 5.79756C17.4753 9.089 18.8572 12.3583 19.7342 15.8039C20.614 19.2704 21.1736 22.7942 21.4511 26.3601C21.5849 28.0897 21.7044 29.825 21.7524 31.5616C21.7896 32.9424 21.7525 34.3311 21.6743 35.7142C21.5488 38.036 21.2497 40.3393 20.8228 42.6278C20.3358 45.2063 19.3752 47.6273 18.3182 50.0152C18.1943 50.2979 17.9965 50.4664 17.679 50.4895C17.4425 50.5075 17.2118 50.5398 16.9801 50.5558C16.1621 50.615 16.0971 50.5912 16.0141 49.7551C15.7989 47.632 15.6207 45.505 15.4264 43.3789C15.3719 42.7916 15.372 42.7915 14.9873 42.4152C14.9933 43.3212 15.0002 44.2434 15.0349 45.1655ZM21.5734 48.4065C23.0737 44.8811 24.0443 41.2098 24.4421 37.4099C24.7227 34.7042 24.779 31.9783 24.6027 29.2522C24.4172 26.3803 23.8715 23.5764 23.2562 20.7785C22.9636 19.451 22.65 18.1265 22.3154 16.8049C21.8252 14.8648 21.1311 12.996 20.3398 11.161C20.1475 10.7124 19.9743 10.2563 19.9039 9.75298C20.5124 10.8753 21.1781 11.9744 21.7267 13.1265C22.8718 15.5221 23.7769 18.009 24.6954 20.5017C25.6081 22.9801 26.2177 25.531 26.7378 28.1071C26.9891 29.346 27.088 30.6189 27.1601 31.8804C27.2873 34.1832 27.1522 36.4811 26.9074 38.768C26.754 40.1981 26.3382 41.5681 25.8727 42.9249C25.4309 44.2168 24.9202 45.4755 24.2691 46.6747C23.945 47.2709 23.5636 47.8072 22.8821 48.2044C25.2384 42.9042 26.1817 37.4105 26.1773 31.7513C26.1742 28.3571 25.3597 25.0524 24.6444 21.7464C24.6318 21.7017 24.5392 21.6782 24.392 21.5881C24.3871 21.8227 24.3639 21.9983 24.3855 22.1613C24.6332 23.7617 24.8505 25.3689 25.1497 26.9596C25.6171 29.4462 25.6944 31.9408 25.5324 34.4601C25.3679 37.0691 24.9715 39.6388 24.3498 42.1721C23.8157 44.3598 23.191 46.5287 22.0315 48.4983C21.8371 48.8261 21.6339 49.1187 21.1366 49.2587C21.3128 48.9271 21.4599 48.6739 21.5734 48.4065ZM18.7718 9.2133C20.2109 12.2268 21.3082 15.3672 22.1415 18.6089C23.1382 22.4879 23.7878 26.413 24.0611 30.4071C24.1735 32.029 24.1067 33.6458 23.9778 35.2599C23.858 36.7319 23.7782 38.2209 23.5086 39.6648C23.0881 41.9007 22.664 44.1548 21.6669 46.225C21.1177 47.3608 20.4022 48.4143 19.7508 49.5028C19.6844 49.6127 19.5692 49.698 19.3825 49.7568C19.3956 49.6795 19.4001 49.5947 19.4266 49.5231C20.4617 46.8892 21.1676 44.1667 21.6024 41.3766C21.7516 40.4023 21.8712 39.4234 22.05 38.4538C22.3589 36.7781 22.2176 35.0848 22.2509 33.3985C22.3164 30.2978 22.1445 27.199 21.7867 24.1197C21.4121 20.8756 20.8468 17.653 19.9195 14.5214C19.3279 12.5225 18.5287 10.5855 17.8123 8.62051C17.5196 7.81374 17.1916 7.0157 16.8846 6.2147C16.9417 6.19161 17.0056 6.17134 17.0627 6.14826C17.6356 7.16864 18.2684 8.15929 18.7718 9.2133ZM5.78983 29.2201C5.6541 32.7093 5.23985 36.1947 5.50468 39.6881C5.67546 41.9068 5.91779 44.1243 6.16293 46.335C6.22199 46.8651 6.41355 47.3803 6.53745 47.9063C6.60618 48.1998 6.65867 48.4944 6.72851 48.8318C6.04921 48.4803 5.34687 47.5233 5.21716 46.695C5.02208 45.4444 4.87362 44.186 4.73001 42.9257C4.31861 39.2477 4.44423 35.5689 4.89121 31.9042C5.12033 30.0447 5.45249 28.1932 5.74077 26.343C5.76035 26.2132 5.80759 26.0834 5.84338 25.9526C5.89302 25.9658 5.94456 25.9837 5.98943 25.9988C5.93117 27.0748 5.83189 28.1452 5.78983 29.2201Z" fill="white"/>
<path d="M15.4871 12.7504C15.507 12.964 15.5516 13.1841 15.5438 13.3978C15.4463 16.3508 15.3258 19.302 15.2398 22.2559C15.1946 23.8029 15.1723 25.3519 15.1872 26.8968C15.2172 29.7816 15.2749 32.6664 15.3259 35.5483C15.3499 36.9788 15.3854 38.4102 15.4142 39.8387C15.4154 39.9103 15.4395 39.9835 15.4207 40.0465C15.3688 40.206 15.3124 40.478 15.2238 40.4916C14.9254 40.5346 14.9388 40.2524 14.9133 40.0522C14.8828 39.7986 14.8714 39.5373 14.8667 39.2788C14.8422 37.7101 14.811 36.1385 14.8027 34.5687C14.7918 33.3489 14.8152 32.132 14.8043 30.9123C14.7957 30.0683 14.7709 29.2252 14.7346 28.3813C14.6178 25.7752 14.6869 23.1771 14.8209 20.575C14.9387 18.2342 15.0221 15.8907 15.1285 13.5489C15.1409 13.278 15.1876 13.0099 15.2182 12.7428C15.3165 12.753 15.4042 12.7507 15.4871 12.7504Z" fill="white"/>
<path d="M18.3554 15.6131C18.4047 15.8037 18.4798 15.9893 18.5062 16.178C18.9418 19.6967 19.3078 23.2213 19.2334 26.7799C19.1456 30.9087 19.0646 35.0404 18.9721 39.1712C18.9647 39.5232 18.9479 39.879 18.888 40.2244C18.8684 40.3542 18.7124 40.4615 18.6203 40.5763C18.5426 40.4526 18.3963 40.3233 18.3949 40.1965C18.3994 39.5632 18.4477 38.9289 18.4637 38.2965C18.5596 34.8734 18.6421 31.4445 18.7447 28.0241C18.8372 24.9901 18.6568 21.9666 18.407 18.949C18.3353 18.0862 18.1989 17.2273 18.1043 16.3626C18.0796 16.1233 18.0988 15.8829 18.0971 15.6454C18.1838 15.627 18.2696 15.6201 18.3554 15.6131Z" fill="white"/>
<path d="M7.6426 24.9487C7.62827 25.2149 7.62721 25.4867 7.60143 25.7519C7.37533 28.2085 7.14262 30.6622 7.19887 33.1321C7.25742 35.7174 7.47329 38.2944 7.82645 40.8548C8.06995 42.5955 8.41357 44.3233 8.70095 46.0629C8.73899 46.3078 8.97112 46.6905 8.54886 46.7558C8.22193 46.8104 8.22625 46.4098 8.18061 46.1734C7.55858 43.0846 7.17385 39.9664 6.95696 36.8247C6.79735 34.524 6.69979 32.2259 6.86253 29.9278C6.96606 28.4292 7.14498 26.9389 7.2943 25.4439C7.31277 25.2703 7.37699 25.1004 7.41836 24.9286C7.49181 24.9321 7.56723 24.9404 7.6426 24.9487Z" fill="white"/>
</svg>
