<svg width="31" height="54" viewBox="0 0 31 54" fill="none" xmlns="http://www.w3.org/2000/svg">
<path d="M12.7822 1.50381C13.5846 0.380322 15.0242 -0.691632 17.3261 0.567035C20.4589 2.2757 22.1584 5.00933 23.2911 7.19787C24.1708 8.89534 24.951 10.4309 25.646 12.0502C26.3133 13.6103 26.871 15.2014 27.4107 16.7369L27.5343 17.088C27.9714 18.3347 28.348 19.5976 28.7127 20.818C28.9165 21.5043 29.0563 22.1564 29.1868 22.7887L29.2618 23.1385C29.423 23.8968 29.59 24.6843 29.7205 25.497C29.766 25.7923 29.8098 26.0924 29.8554 26.3878C30.0187 27.4856 30.1307 28.3791 30.2055 29.2097C30.3556 30.7947 30.5358 32.8824 30.6483 35.0057C30.7356 36.688 30.7529 38.9078 30.1033 41.1582L28.9595 45.1416C28.5607 46.5376 27.6929 47.7357 26.3859 48.7138C24.9446 49.7906 23.3037 50.74 21.5093 51.5407C20.5702 51.9586 19.6184 52.1861 18.7763 52.3824C18.4836 52.4508 18.1844 52.5222 17.8978 52.6037C17.631 52.6761 17.3616 52.7255 17.097 52.7768C16.9974 52.7952 16.9026 52.8153 16.8078 52.8355C13.8792 53.4638 11.1282 53.0638 8.61919 51.6532C6.75511 50.6031 5.42824 49.0981 4.35973 47.8894L4.24303 47.7595C3.68509 47.1301 3.04994 46.4125 2.54779 45.5247C2.05486 44.6567 1.67651 43.639 1.4469 42.588C1.32114 42.0176 1.21687 41.4331 1.13061 40.8442C0.792107 38.5458 0.72348 36.1215 0.931817 33.4318C0.941505 33.3151 0.951222 33.1983 0.959153 33.0865L0.623047 33.0188C0.623047 33.0188 1.33318 29.5061 1.43293 29.0068C1.66406 27.8612 1.8952 26.7156 2.14564 25.577C2.63686 23.3565 3.32244 21.0975 4.19233 18.8727C4.44394 18.2264 4.69074 17.5784 4.93752 16.9304C5.84476 14.5279 6.78841 12.0403 8.0414 9.64887C8.31403 9.12504 8.58364 8.59455 8.85321 8.06414C9.38049 7.02087 9.92489 5.94561 10.5272 4.8914C11.1585 3.78761 11.8731 2.78521 12.5689 1.81965L12.7822 1.50381Z" fill="#FFE489"/>
<path d="M3.71571 31.0239C3.64174 31.8879 3.55638 32.7531 3.49206 33.6205C3.27359 36.4432 3.3526 39.2593 3.95599 42.0313C4.12513 42.7979 4.39958 43.5755 4.78551 44.257C5.18064 44.9583 5.74692 45.5798 6.28425 46.1908C7.35101 47.4043 8.42962 48.6003 9.87604 49.4164C11.9033 50.5588 14.0265 50.8068 16.2689 50.3222C16.5892 50.2529 16.917 50.2083 17.2329 50.1211C18.3181 49.8274 19.4555 49.6456 20.4736 49.1909C22.0131 48.5051 23.4964 47.6732 24.8564 46.6543C25.6227 46.0806 26.2254 45.3708 26.4982 44.4262C26.879 43.0946 27.258 41.7679 27.6437 40.4381C28.1461 38.6971 28.1835 36.9126 28.0893 35.1294C27.9933 33.2307 27.8307 31.3351 27.6548 29.4456C27.5411 28.2565 27.3721 27.0691 27.1833 25.8909C27.0475 25.0326 26.8596 24.1826 26.6812 23.3362C26.5546 22.7381 26.4262 22.1448 26.257 21.5585C25.8954 20.3448 25.5337 19.1311 25.1146 17.9401C24.5403 16.3046 23.9712 14.6545 23.2885 13.0615C22.6058 11.4685 21.8098 9.9164 21.0104 8.37384C19.8421 6.11772 18.4128 4.08347 16.0964 2.81954C15.4673 2.47579 15.2751 2.43323 14.8682 2.99563C14.1333 4.02348 13.3757 5.05393 12.7527 6.14982C11.8809 7.67433 11.1257 9.26861 10.3131 10.8256C8.80631 13.704 7.76065 16.7722 6.5847 19.7928C5.78112 21.8505 5.12717 23.9625 4.65397 26.1186C4.29764 27.7433 3.97989 29.3821 3.64945 31.0108C3.66875 31.0178 3.68982 31.02 3.71571 31.0239ZM10.8257 49.0897C9.9215 48.6459 8.99711 48.2274 8.27816 47.4848C7.81057 46.9976 7.19461 46.6477 6.97323 45.9496C6.78341 45.3449 6.54444 44.7551 6.40685 44.1421C6.20044 43.2526 6.08401 42.3412 5.89077 41.4456C5.45301 39.4499 5.60408 37.4281 5.54544 35.4119C5.4612 32.4299 5.97635 29.5129 6.43311 26.5912C6.69863 24.9006 7.0532 23.2207 7.39638 21.542C7.49393 21.0638 7.6854 20.5978 7.8492 20.1327C8.90933 17.0699 10.0273 14.0282 11.3735 11.0804C11.9386 9.84322 12.6607 8.68511 13.3092 7.48919C13.6564 6.85042 14.0037 6.21156 14.3655 5.57807C14.5121 5.32537 14.6956 5.09159 14.987 4.89159C15.0767 5.65115 15.1568 6.40719 15.2579 7.16543C15.5468 9.37479 15.8731 11.5868 16.1278 13.8001C16.4153 16.2986 16.641 18.8019 16.8961 21.2995C16.9617 21.9301 16.9979 22.5664 17.1092 23.1917C17.4618 25.211 17.5622 27.2478 17.5225 29.2939C17.4597 32.6049 17.4082 35.9146 17.3471 39.2208C17.3325 39.8768 17.2853 40.5319 17.2641 41.1909C17.2583 41.3419 17.3013 41.4941 17.4412 41.6653C17.4807 41.5266 17.5558 41.3956 17.558 41.2543C17.6176 39.9643 17.6772 38.6743 17.7206 37.3838C17.7711 35.8336 17.8427 34.2856 17.8427 32.7389C17.8369 30.1571 17.9925 27.5521 17.7032 24.9983C17.1194 19.845 16.7866 14.663 15.9601 9.53073C15.6697 7.73076 15.6146 5.88514 15.458 4.06283C15.4559 4.02378 15.4927 3.98265 15.5186 3.92649C16.9784 6.92819 17.9353 10.0802 18.5675 13.3436C18.7327 14.1962 18.8799 15.0532 19.0517 15.9027C19.4438 17.8435 19.5898 19.8151 19.6546 21.7844C19.7798 25.5847 19.827 29.3893 19.9197 33.1888C19.9475 34.3138 20.0564 35.4411 20.0403 36.5666C20.0102 38.7965 19.9249 41.0281 19.8575 43.2553C19.8101 44.8722 19.7333 46.4948 19.7021 48.1121C19.6914 48.5619 19.5465 48.8098 19.1191 48.933C18.7457 49.043 18.3841 49.1956 17.9576 49.3464C17.8532 47.5158 17.7625 45.783 17.6441 44.0511C17.1433 45.8473 17.7654 47.697 17.3336 49.5292C16.1391 49.8979 14.9386 50.0129 13.706 49.9305C12.5016 48.3443 12.1138 46.4816 11.8287 44.607C11.6181 43.2187 11.5755 41.804 11.4904 40.4012C11.4039 38.9269 11.3289 37.4513 11.2995 35.9704C11.248 33.5742 11.44 31.1846 11.6303 28.7998C11.7888 26.8025 12.1979 24.8528 12.5569 22.8902C12.6813 22.2031 12.7443 21.5045 12.8419 20.7859C12.5865 20.7967 12.5584 20.9941 12.5294 21.1639C12.081 23.8974 11.4339 26.5914 11.2378 29.3675C11.0268 32.2748 10.9149 35.1799 10.9865 38.0917C11.0185 39.4752 11.1774 40.8557 11.2388 42.2335C11.3382 44.363 11.7646 46.4201 12.4652 48.4295C12.6055 48.8249 12.7787 49.2049 12.9598 49.6534C12.3029 49.611 11.8927 49.3415 11.5607 48.8271C10.5415 47.2428 10.1185 45.4767 9.90058 43.6429C9.55347 40.7675 9.55913 37.8838 9.69162 34.9971C9.80778 32.4105 10.1425 29.8542 10.4416 27.2905C10.9215 23.224 11.7327 19.2235 12.5794 15.2304C13.0065 13.216 13.7565 11.2755 14.3613 9.29853C14.5413 8.71368 14.7263 8.13057 14.8949 7.54704C14.9217 7.45841 14.8695 7.34649 14.8529 7.24206C14.4948 7.26477 14.5312 7.54039 14.4776 7.71764C13.9255 9.48972 13.4331 11.2781 12.8424 13.0361C11.9443 15.6988 11.5745 18.4718 11.0722 21.2184C10.8775 22.2789 10.6617 23.3371 10.4815 24.4029C10.3712 25.0514 10.303 25.7043 10.2185 26.3567C10.0769 27.4966 9.9287 28.6396 9.80155 29.7848C9.32203 34.0154 9.1071 38.2549 9.46038 42.5098C9.55482 43.6318 9.78617 44.7381 9.98329 45.8483C10.1327 46.6842 10.4049 47.4828 10.8545 48.2149C11.0132 48.4694 11.1242 48.7502 11.3307 49.1588C11.049 49.1218 10.9235 49.1363 10.8257 49.0897ZM20.076 46.3791C20.1491 43.9408 20.2938 41.5012 20.3068 39.0629C20.3184 35.4271 20.1953 31.7861 20.2183 28.1491C20.2421 24.5998 20.0528 21.0657 19.7089 17.5356C19.6262 16.6966 19.4295 15.8708 19.2963 15.0353C18.8334 12.1778 18.1708 9.37338 17.1777 6.65088C17.0067 6.18967 16.8046 5.73904 16.6156 5.28221C16.5244 5.05226 16.435 4.81743 16.3363 4.5629C16.4561 4.57917 16.5149 4.56775 16.5338 4.59101C17.6053 5.86643 18.5663 7.20549 19.3526 8.69408C20.5994 11.0498 21.2822 13.5884 21.8541 16.1466C22.4636 18.8717 22.9262 21.6251 23.4475 24.3672C23.9522 27.0049 24.1458 29.6715 24.17 32.3529C24.2006 35.8728 24.2377 39.3896 23.7812 42.8962C23.6124 44.2011 23.4729 45.5003 23.136 46.7713C23.1017 46.8955 23.0358 47.0464 22.9397 47.1153C22.1129 47.7052 21.2216 48.1569 20.0881 48.433C20.0844 47.6774 20.0583 47.0285 20.076 46.3791ZM5.02703 43.6235C4.59245 42.7603 4.35622 41.8326 4.1924 40.8712C3.65581 37.7355 3.71552 34.5983 4.16488 31.4716C4.39703 29.8728 4.74591 28.2836 5.15093 26.7203C5.68114 24.6779 6.26314 22.6434 6.93199 20.6406C8.03738 17.3483 9.22833 14.0762 10.7452 10.9446C11.799 8.77032 12.9457 6.64084 14.246 4.6C14.346 4.44514 14.4764 4.31225 14.6818 4.2285C14.3631 4.77381 14.0412 5.3126 13.7322 5.86142C12.924 7.31619 12.0771 8.75684 11.3378 10.2476C10.7446 11.4418 10.2603 12.6975 9.75532 13.9347C9.35662 14.91 8.98996 15.9024 8.62811 16.8965C8.14682 18.2189 7.65587 19.5377 7.22766 20.8794C7.02871 21.5011 6.9877 22.1693 6.8256 22.8099C6.10208 25.6837 5.69534 28.6182 5.37461 31.5566C5.17881 33.3709 5.26161 35.2156 5.20359 37.0418C5.12382 39.7236 5.68997 42.3126 6.23637 44.9108C6.25083 44.9762 6.24732 45.0459 6.24862 45.1174C6.21043 45.1472 6.17225 45.1771 6.13407 45.2069C5.68884 44.7333 5.31338 44.2032 5.02703 43.6235ZM21.6354 12.2577C22.9048 15.3321 23.7305 18.5293 24.3122 21.7962C24.597 23.3864 24.9647 24.9741 25.1125 26.58C25.2962 28.5379 25.3689 30.5156 25.3363 32.4822C25.2929 35.3194 25.131 38.1517 24.995 40.988C24.9535 41.8528 24.8633 42.7162 24.7424 43.574C24.6316 44.359 24.4576 45.1374 24.295 45.9144C24.2181 46.2908 24.1299 46.368 23.6621 46.6022C23.6503 46.4995 23.6218 46.4126 23.6354 46.3301C24.2441 43.021 24.5369 39.6788 24.5344 36.3221C24.5335 33.3213 24.4532 30.3134 24.215 27.3191C24.041 25.1243 23.5673 22.9571 23.2059 20.7815C23.0022 19.5542 22.7872 18.3281 22.5067 17.1166C22.0882 15.3082 21.6122 13.5226 21.1578 11.723C21.1389 11.6396 21.1266 11.5532 21.1144 11.4668C21.1618 11.4567 21.2109 11.4418 21.2583 11.4318C21.392 11.71 21.5227 11.9816 21.6354 12.2577ZM24.8719 45.0804C25.3194 43.6255 25.3475 42.1218 25.4388 40.6247C25.5411 38.9622 25.6319 37.3011 25.6806 35.6354C25.7804 32.2832 25.8398 28.9216 25.4094 25.5841C25.1573 23.6341 24.6817 21.7121 24.3383 19.7726C23.8604 17.1064 23.0156 14.5472 22.0593 12.0239C22.0457 11.9862 22.0585 11.9362 22.0581 11.8923C22.0971 11.8901 22.1673 11.8774 22.1717 11.8954C23.0053 13.5542 23.7767 15.2341 24.3325 17.0104C24.4404 17.3448 24.6149 17.6762 24.2734 17.9837C24.3601 18.5563 24.4355 19.1302 24.5402 19.6985C24.5783 19.9091 24.5887 20.1807 25.0029 20.244C24.9934 19.9399 24.9846 19.6636 24.9777 19.3823C25.0071 19.3766 25.0317 19.3691 25.0611 19.3634C25.2671 20.0287 25.4665 20.697 25.6892 21.4066C25.1253 21.7096 25.2094 22.1993 25.305 22.6877C25.5021 23.6776 25.7353 24.6588 25.9096 25.6514C26.0485 26.4562 26.1772 27.2736 26.2182 28.092C26.3338 30.3421 26.456 32.5891 26.4677 34.8396C26.4828 37.0204 26.4102 39.202 25.9568 41.3488C25.712 42.5168 25.4672 43.6848 25.2111 44.8541C25.1627 45.077 25.0644 45.2871 24.9854 45.5042C24.9318 45.5011 24.8801 45.4933 24.8265 45.4902C24.845 45.3493 24.831 45.2076 24.8719 45.0804ZM26.8162 32.6055C26.7752 29.0545 26.5349 25.5401 25.586 22.0958C25.6513 22.0814 25.7167 22.0669 25.7773 22.0507C25.8347 22.2684 25.8903 22.4909 25.9526 22.7103C26.0131 22.9345 26.0898 23.1591 26.1305 23.3926C26.4188 24.9131 26.7545 26.4235 26.9677 27.9549C27.1656 29.3933 27.2933 30.8443 27.3447 32.295C27.4156 34.2173 27.394 36.1387 27.382 38.0636C27.3788 38.5981 27.286 39.1382 27.1823 39.6634C27.0342 40.4457 26.8554 41.2224 26.6573 41.9919C26.5483 42.4114 26.3798 42.8145 26.237 43.2216C26.1629 43.2001 26.087 43.1834 26.0128 43.1619C26.7563 39.6777 26.8543 36.15 26.8162 32.6055ZM18.0329 5.08208C19.7151 6.78198 20.8256 8.83661 21.7543 11.0001C21.7082 11.0216 21.6621 11.0432 21.616 11.0646C20.4196 9.06608 19.2263 7.07406 18.0329 5.08208Z" fill="white"/>
<path d="M15.7715 44.9161C15.6051 43.8116 15.5234 42.6998 15.5522 41.5844C15.6393 38.0417 15.7101 34.4985 16.1069 30.9757C16.1131 30.9287 16.2114 30.8989 16.354 30.7923C16.3868 31.0174 16.4425 31.1798 16.4315 31.3452C16.3857 31.9516 16.296 32.5584 16.2647 33.17C16.1397 35.9611 16.0098 38.7504 15.9173 41.5423C15.8859 42.4546 15.9501 43.3743 15.9674 44.2878C15.97 44.491 15.9545 44.6986 15.9439 44.9079C15.8904 44.9048 15.8286 44.9095 15.7715 44.9161Z" fill="white"/>
<path d="M14.793 23.2339C14.7453 23.0198 14.6764 22.8035 14.6629 22.5854C14.5284 20.3121 14.3321 18.0435 14.3016 15.7697C14.2835 14.5881 14.5515 13.4012 14.6993 12.2144C14.7279 12.0007 14.7701 11.7646 15.0961 11.6045C15.0851 11.8301 15.1101 11.9867 15.0736 12.1319C14.4714 14.3722 14.6221 16.6461 14.7548 18.9243C14.8255 20.1415 14.9125 21.3591 14.9832 22.5763C14.9967 22.7944 14.9681 23.0081 14.9606 23.2239C14.9053 23.2257 14.8483 23.2322 14.793 23.2339Z" fill="white"/>
<path d="M20.7375 20.5662C20.7891 20.9348 20.8593 21.2226 20.8741 21.5122C20.9852 24.0449 21.1258 26.5718 21.1816 29.1062C21.2522 32.5314 21.2463 35.9561 21.3006 39.3808C21.32 40.6941 21.4433 42.007 21.4741 43.3189C21.4992 44.4212 21.4594 45.5217 21.4406 46.6243C21.4362 46.7266 21.3831 46.8274 21.3563 46.916C21.2848 46.9173 21.2602 46.9248 21.2361 46.916C21.2168 46.909 21.1865 46.887 21.1852 46.8756C21.1674 46.339 21.1526 45.809 21.1347 45.2723C20.8919 37.0951 20.896 28.9149 20.4891 20.7381C20.4816 20.7135 20.5523 20.6846 20.7375 20.5662Z" fill="white"/>
<path d="M22.0655 44.8021C21.7361 44.4308 21.7898 44.0732 21.8232 43.741C21.8765 43.1592 21.9622 42.5782 22.0545 41.9942C22.4062 39.8268 22.3471 37.6465 22.2785 35.4627C22.2676 35.0871 22.2453 34.7128 22.2507 34.3376C22.2507 34.2174 22.3271 34.0976 22.3886 33.9287C22.9653 35.0622 22.7407 42.2714 22.0655 44.8021Z" fill="white"/>
</svg>
